<?xml version="1.0" encoding="utf-8"?>
<!-- Generator: Adobe Illustrator 28.0.0, SVG Export Plug-In . SVG Version: 6.00 Build 0)  -->
<svg version="1.1" id="Layer_1" xmlns="http://www.w3.org/2000/svg" xmlns:xlink="http://www.w3.org/1999/xlink" x="0px" y="0px"
	 viewBox="0 0 2834.646 1984.252" style="enable-background:new 0 0 2834.646 1984.252;" xml:space="preserve">
<style type="text/css">
	.st0{fill:#FFFFFF;}
</style>
<g>
	<g>
		<path class="st0" d="M0-425.748c944.999,0,1889.999,0,2834.999,0c0,944.999,0,1889.998,0.001,2834.999
			c-944.999,0.001-1889.998,0.001-2834.998,0.001C0.001,1464.253,0.001,519.253,0-425.748z M1270.425,481.489
			c-1.194,3.114-1.899,4.633-2.368,6.222c-29.17,98.885,33.188,197.886,131.77,216.085c8.405,1.552,17.354,2.513,25.746,1.418
			c100.412-13.104,167.069-110.911,142.613-209.01c-3.973-15.935-0.94-15.308-19.817-15.665
			c-42.336-0.802-78.842,13.852-109.029,43.771c-2.464,2.442-4.872,4.94-7.307,7.412c-0.743-0.276-1.486-0.551-2.229-0.827
			c0-21.034,0-42.068,0-63.084c-9.28,0-17.116,0-26.035,0c0,7.568,0,14.486,0,21.403c0,7.328,0.262,14.668-0.078,21.98
			c-0.307,6.62,1.558,13.5-1.538,20.626C1366.108,493.08,1322.675,476.249,1270.425,481.489z M1424.327,741.929
			c42.792,0,84.305,0,125.782,0c0.412,1.772,0.826,2.701,0.815,3.625c-0.551,46.247-41.141,86.717-87.37,86.947
			c-30.301,0.151-60.604-0.06-90.906,0.057c-27.44,0.106-49.498-11.239-67.539-31.279c-1.65-1.833-2.793-4.124-5.206-7.763
			c50.786,0,99.85,0,149.112,0c0-9.549,0-17.969,0-26.713c-63.895,0-127.015,0-191.344,0c0.627,3.86,0.692,7.147,1.721,10.097
			c4.522,12.96,10.45,25.273,19.132,35.987c24.373,30.08,55.008,47.49,94.72,47.031c31.297-0.361,62.601-0.015,93.902-0.13
			c5.297-0.02,10.739-0.137,15.863-1.308c48.224-11.019,78.812-40.659,92.368-88.119c4.656-16.302,3.66-32.993,3.611-49.619
			c-0.006-2.18-0.649-4.358-0.98-6.427c-51.49,0-102.301,0-154.21,0c0,5.816-0.054,11.063,0.02,16.308
			C1423.864,733.873,1424.103,737.12,1424.327,741.929z M1624.457,1052.147c6.105-2.035,10.546-3.299,14.821-4.983
			c10.078-3.968,16.801-10.868,17.408-22.164c0.504-9.369-6.036-18.73-16.915-22.409c-7.767-2.627-16.192-4.346-24.367-4.527
			c-20.304-0.451-40.634,0.175-60.951,0.478c-2.075,0.031-4.139,0.804-6.208,1.233c1.967,1.683,3.889,2.019,5.764,2.525
			c8.294,2.239,10.252,4.486,11.316,12.981c0.207,1.649,0.296,3.323,0.307,4.986c0.145,21.986,0.286,43.972,0.369,65.958
			c0.009,2.323-0.162,4.682-0.575,6.965c-1.225,6.768-4.212,9.584-11.079,10.916c-2.288,0.444-4.538,1.082-6.806,1.63
			c14.204,3.132,48.872,2.479,55.759-0.335c-3.777-0.698-6.64-1.138-9.461-1.768c-4.251-0.949-7.533-3.485-8.234-7.763
			c-2.255-13.774-2.533-27.6-0.833-42.017c7.699,0,14.36-0.46,20.933,0.104c10.661,0.915,17.992,6.686,21.039,17.081
			c1.869,6.376,3.011,12.961,4.66,19.406c0.903,3.528,1.661,7.263,3.457,10.337c1.361,2.33,4.034,4.909,6.512,5.397
			c11.265,2.215,22.666,1.897,34.235,1.053c-0.29-1.173-0.272-1.633-0.45-1.728c-0.853-0.458-1.737-1.102-2.649-1.171
			c-12.598-0.949-18.716-8.814-21.702-20.114c-0.849-3.213-1.816-6.394-2.718-9.593c-2.084-7.382-6.177-13.223-13.031-16.922
			C1632.147,1056.131,1629.198,1054.627,1624.457,1052.147z M1255.012,1105.881c0.111,0.627,0.223,1.254,0.334,1.881
			c12.293,0,24.591-0.217,36.877,0.061c12.314,0.279,24.62,1.548,36.924,1.482c14.423-0.078,28.639-2.151,41.222-10.023
			c17.023-10.649,27.008-25.644,26.432-46.229c-0.591-21.087-11.908-35.5-30.075-44.912c-9.862-5.109-20.578-7.954-31.646-8.385
			c-23.619-0.92-47.257-1.347-70.889-1.906c-0.721-0.017-1.459,0.737-3.335,1.751c2.431,1.012,3.743,1.918,5.142,2.081
			c7.218,0.843,10.292,5.475,11.191,12.036c0.497,3.624,0.971,7.307,0.875,10.948c-0.499,18.977-1.133,37.952-1.847,56.923
			c-0.15,3.982-0.617,7.983-1.314,11.908c-1.036,5.828-4.463,9.494-10.491,10.511
			C1261.263,1104.539,1258.144,1105.251,1255.012,1105.881z M1194.786,1000.222c-0.106,0.761-0.211,1.522-0.317,2.283
			c1.489,0.34,2.963,0.784,4.469,1.005c13.736,2.013,18.552,7.035,18.896,20.938c0.33,13.315,0.121,26.644,0.059,39.967
			c-0.021,4.494-0.318,8.987-0.551,15.079c-2.877-2.382-4.419-3.495-5.772-4.803c-23.941-23.161-47.843-46.363-71.811-69.495
			c-2.092-2.019-4.513-5.02-6.92-5.159c-10.069-0.582-20.19-0.245-30.293-0.245c1.702,2.596,3.737,3.2,5.609,4.131
			c9.136,4.54,16.429,11.444,17.15,21.731c1.418,20.247,1.444,40.593,1.98,60.899c0.043,1.64-0.321,3.314-0.662,4.937
			c-1.806,8.58-4.542,11.134-13.168,12.496c-2.718,0.429-5.421,0.95-8.132,1.429c10.736,3.365,46.24,2.885,52.883-0.079
			c-2.218-0.593-3.679-1.159-5.189-1.36c-12.582-1.676-16.865-4.817-18.017-17.099c-1.707-18.206-2.154-36.531-3.013-54.812
			c-0.099-2.104,0.597-4.245,1.08-7.37c30.485,27.348,57.406,56.743,88.651,84.772c0.568-5.341,1.151-8.49,1.199-11.647
			c0.333-21.651,0.514-43.304,0.839-64.955c0.08-5.32,0.26-10.661,0.839-15.944c0.779-7.114,5.095-11.324,11.944-13.054
			c2.964-0.749,5.928-1.498,8.892-2.247c-0.142-0.466-0.285-0.931-0.427-1.397
			C1228.267,1000.222,1211.526,1000.222,1194.786,1000.222z M2223.004,999.279c-35.268,0-69.153-0.001-103.038,0.032
			c-0.188,0-0.43,0.462-0.545,0.749c-0.098,0.246-0.05,0.55-0.086,1.152c1.173,0.357,2.424,0.719,3.663,1.118
			c11.566,3.733,12.114,4.12,12.383,15.914c0.462,20.293,0.642,40.593,0.809,60.891c0.032,3.98-0.353,7.989-0.86,11.944
			c-1.156,9.024-3.486,11.36-12.283,13.023c-2.032,0.384-4.021,0.994-6.03,1.5c0.074,0.635,0.148,1.27,0.222,1.906
			c36.982,0.679,73.963,1.358,110.946,2.037c3.357-10.137,6.361-18.939,6.076-28.605c-2.169,1.393-3.328,3.311-4.887,4.814
			c-4.263,4.11-8.104,9.162-13.169,11.844c-15.928,8.431-33.152,9.222-50.545,5.73c-5.426-1.089-9.758-4.412-10.65-10.557
			c-1.863-12.847-1.842-25.693-0.638-40.023c8.82,1.141,16.736,1.716,24.452,3.281c8.749,1.775,10.178,10.884,15.681,19.013
			c0-15.909,0-29.354,0-42.799c-5.455,5.842-8.109,13.638-16.564,15.491c-7.761,1.701-15.544,3.002-23.969,0.113
			c-0.094-14.421-0.959-28.569,2.344-43.719c9.483-0.21,18.726-0.263,27.955-0.655c15.536-0.659,27.689,5.685,37.437,17.409
			c1.473,1.771,3.334,3.22,5.016,4.818c0.542-0.356,1.083-0.712,1.625-1.068C2226.65,1016.584,2224.954,1008.536,2223.004,999.279z
			 M1490.74,1072.706c0-13.447,0-26.894,0-40.341c-5.341,5.559-7.998,13.351-16.225,15.278c-7.754,1.817-15.567,2.967-23.22,0.77
			c0-14.714,0-28.804,0-44.204c10.119-0.261,19.017-0.278,27.888-0.765c16.284-0.894,29.088,5.468,39.203,17.948
			c1.311,1.617,3.04,2.895,4.575,4.33c0.559-0.293,1.118-0.585,1.677-0.878c-1.771-8.235-3.541-16.47-5.535-25.743
			c-34.821,0-68.717-0.001-102.613,0.026c-0.242,0-0.532,0.365-0.711,0.621c-0.186,0.266-0.265,0.607-0.502,1.187
			c2.156,0.759,4.297,1.522,6.445,2.266c8.509,2.947,9.302,3.922,9.845,12.677c0.433,6.979,1.146,13.966,1.09,20.945
			c-0.144,17.968-0.288,35.95-1.15,53.892c-0.459,9.562-3.327,11.747-12.84,13.486c-1.89,0.345-3.688,1.192-5.528,1.807
			c0.128,0.506,0.256,1.012,0.384,1.518c36.878,0.675,73.755,1.349,110.612,2.023c3.955-9.883,6.263-18.937,6.567-28.684
			c-2.318,1.562-3.607,3.781-5.411,5.437c-4.604,4.226-8.858,9.382-14.291,12.054c-15.444,7.596-32.04,8.42-48.753,5.06
			c-5.858-1.178-10.23-4.679-11.125-11.28c-1.701-12.554-1.595-25.089-0.677-38.215c9.086-0.824,17.25-0.302,25.267,2.203
			C1483.883,1058.676,1485.374,1066.959,1490.74,1072.706z M2101.044,1024.057c0.889-0.29,1.777-0.58,2.666-0.87
			c-1.708-7.815-3.415-15.631-5.023-22.987c-17.081-2.884-102.899-0.945-111.174,2.685c3.364,0.536,5.841,0.981,8.333,1.319
			c6.516,0.883,10.065,4.692,10.963,11.082c0.324,2.306,0.648,4.637,0.656,6.958c0.068,21.963,0.53,43.938-0.083,65.883
			c-0.382,13.667-1.236,15.478-14.525,18.214c-0.141,0.029-0.167,0.61-0.295,1.127c16.511,0.5,32.985,1.005,49.46,1.468
			c0.614,0.017,1.26-0.342,1.849-0.616c0.246-0.115,0.432-0.442,0.557-0.713c0.137-0.297,0.173-0.641,0.364-1.411
			c-2.852-0.63-5.679-1.354-8.544-1.864c-5.654-1.006-9.272-4.271-9.39-9.985c-0.28-13.565-0.09-27.14-0.09-40.837
			c8.56-2.737,16.396-1.107,24.082,0.818c8.546,2.141,9.692,10.563,12.813,17.799c3.456-6.587,4.383-34.295,1.5-42.899
			c-3.494,7.737-6.035,15.746-14.786,17.695c-7.72,1.719-15.562,2.624-23.172,0.152c0-12.021-0.22-23.339,0.082-34.643
			c0.182-6.822,1.323-7.946,8.445-8.474c7.627-0.565,15.314-0.727,22.961-0.529c15.689,0.407,29.314,5.578,39.44,18.218
			C2098.903,1022.611,2100.064,1023.261,2101.044,1024.057z M897.084,1001.282c-10.266-2.182-49.857-1.957-57.209,0.13
			c16.225,7.274,16.509,7.14,25.062,25.279c11.783,24.989,23.089,50.203,34.589,75.325c0.831,1.815,1.341,3.823,2.416,5.47
			c1.837,2.817,5.356,2.861,7.37,0.084c1.154-1.592,1.84-3.536,2.658-5.357c7.918-17.61,15.793-35.24,23.736-52.839
			c4.518-10.011,8.815-20.142,13.816-29.91c4.188-8.18,9.807-15.199,20.079-16.13c1.304-0.118,2.582-0.524,3.872-0.797
			c-0.675-0.91-1.35-1.821-2.025-2.731c-7.274,0-14.548-0.041-21.822,0.012c-7.012,0.051-14.024,0.199-21.036,0.304
			c1.027,2.367,2.101,2.947,3.248,3.271c10.082,2.847,12.004,6.053,9.22,15.72c-0.644,2.235-1.425,4.447-2.343,6.583
			c-8.286,19.264-16.621,38.506-24.918,57.765c-0.381,0.884-0.536,1.865-0.796,2.801c-0.895-0.253-1.79-0.505-2.686-0.758
			c-8.881-21.06-18.304-41.913-26.445-63.255c-5.134-13.459-2.774-16.255,11.669-19.518
			C895.817,1002.667,896.025,1002.291,897.084,1001.282z M1903.321,1074.581c-0.924-0.343-1.848-0.687-2.773-1.03
			c-1.233,1.373-2.678,2.609-3.666,4.139c-14.163,21.941-35.072,28.237-59.703,25.673c-8.273-0.861-11.434-4.405-12.382-12.894
			c-0.221-1.982-0.418-3.984-0.399-5.974c0.21-21.959,0.346-43.921,0.76-65.877c0.191-10.132,3.045-13.194,13.204-15.67
			c2.516-0.613,5.03-1.238,7.546-1.857c-6.982-1.844-13.579-1.802-20.175-1.856c-6.99-0.057-13.981-0.361-20.967-0.269
			c-6.29,0.082-12.779-2.276-19.949,0.971c1.842,0.958,2.621,1.548,3.496,1.79c14.334,3.974,17.153,6.508,17.638,21.192
			c0.637,19.273,0.138,38.584,0.056,57.879c-0.014,3.323-0.198,6.669-0.625,9.963c-1.043,8.052-4.296,11.553-12.278,13.62
			c-2.602,0.674-5.202,1.358-7.803,2.038c0.11,0.442,0.221,0.885,0.331,1.327c36.792,0,73.584,0,111.089,0
			C1898.99,1096.343,1901.156,1085.462,1903.321,1074.581z M1092.08,1107.634c0.183-0.695,0.366-1.39,0.549-2.084
			c-12.739-0.018-18.553-8.145-22.861-18.114c-1.714-3.968-3.68-7.826-5.469-11.763c-10.321-22.709-20.603-45.436-30.957-68.13
			c-1.24-2.717-2.598-5.44-4.32-7.863c-2.523-3.55-5.442-3.533-7.798,0.261c-2.801,4.51-5.284,9.255-7.496,14.086
			c-10.939,23.888-21.845,47.793-32.545,71.789c-4.277,9.593-10.127,17.097-21.054,19.291c-0.278,0.056-0.362,1.077-0.748,2.339
			c14.341,0,28.467,0,42.593,0c-2.594-1.959-5.384-2.653-8.086-3.599c-7.631-2.673-9.96-6.124-7.669-13.542
			c2.53-8.19,6.047-16.075,9.174-24.198c15.803,0,30.713,0,46.55,0c3.564,8.988,7.516,18.117,10.778,27.487
			c2.073,5.953,0.326,8.5-5.744,10.314c-2.998,0.896-6.084,1.497-9.131,2.232c0.104,0.497,0.208,0.995,0.312,1.492
			C1056.134,1107.634,1074.107,1107.634,1092.08,1107.634z M719.449,1106.048c0.116,0.57,0.231,1.14,0.347,1.71
			c13.925,0,27.85,0.002,41.775-0.026c0.16,0,0.417-0.372,0.457-0.6c0.055-0.314-0.054-0.657-0.101-1.05
			c-3.151-0.908-6.424-1.575-9.479-2.79c-5.955-2.369-8.17-5.668-6.347-11.68c2.66-8.77,6.328-17.234,9.429-25.463
			c16.346,0,31.22,0,46.626,0c3.634,9.186,7.468,18.018,10.604,27.093c2.236,6.47,0.469,8.747-6.204,10.886
			c-2.764,0.886-6.303,0.111-8.823,3.341c18.634,0,36.524,0,56.39,0c-17.796-6.555-17.81-6.548-25.743-23.278
			c-1.852-3.905-3.564-7.876-5.348-11.814c-9.468-20.896-18.911-41.803-28.438-62.672c-1.516-3.321-3.174-6.628-5.198-9.653
			c-2.752-4.114-5.487-3.93-8.35,0.352c-1.289,1.927-2.354,4.023-3.346,6.126c-7.375,15.634-14.776,31.257-22.028,46.949
			c-5.44,11.77-10.643,23.648-16.003,35.455c-3.617,7.967-8.913,13.994-18.13,15.475
			C720.775,1104.532,720.143,1105.483,719.449,1106.048z M597.714,1107.777c38.205,0,74.947,0,112.174,0
			c2.195-11.506,6.262-22.171,4.041-34.474c-1.865,0.435-2.115,1.827-2.806,2.948c-13.591,22.07-33.967,29.534-58.864,27.307
			c-10.082-0.902-13.954-4.812-14.346-15.354c-0.284-7.646-0.294-15.307-0.239-22.961c0.108-15.308,0.124-30.621,0.604-45.919
			c0.328-10.463,3.244-13.713,12.821-16.207c2.658-0.692,5.318-1.375,7.977-2.062c-0.087-0.624-0.175-1.247-0.262-1.871
			c-19.834,0-39.668,0-60.234,0c1.094,1.363,1.413,2.17,1.835,2.228c15.605,2.144,19.404,9.96,19.372,25.107
			c-0.039,18.636,0.109,37.277-0.241,55.908c-0.316,16.832-2.759,19.444-19.477,23.344
			C599.818,1105.832,599.624,1106.136,597.714,1107.777z M1967.713,1107.888c0.088-0.648,0.175-1.296,0.263-1.944
			c-0.744-0.518-1.419-1.287-2.243-1.515c-12.345-3.415-13.845-4.569-14.137-16.643c-0.537-22.241-0.822-44.502-0.491-66.744
			c0.225-15.068,0.779-15.051,15.642-19.716c0.455-0.143,0.708-0.929,2.057-2.82c-6.589-0.191-12.306-0.446-18.026-0.498
			c-5.65-0.051-11.312-0.092-16.949,0.224c-5.457,0.306-11.297-1.931-17.063,1.82c13.786,5.801,14.462,6.175,14.812,20.781
			c0.54,22.583,0.81,45.187,0.491,67.772c-0.176,12.444-0.827,12.422-12.458,16.236c-0.392,0.128-0.531,1.027-1.128,2.281
			c1.301,0.281,2.425,0.733,3.551,0.736C1937.261,1107.903,1952.487,1107.888,1967.713,1107.888z M1393.727,1277.453
			c10.102,0,19.703,0,29.304,0c-4.042-2.197-8.577-3.833-8.692-9.379c-0.148-7.193-0.036-14.392-0.036-21.427
			c17.327-2.631,23.287,0.386,26.186,14.341c3.7,17.811,3.967,16.404,21.888,16.677c1.41,0.021,2.823-0.232,4.235-0.357
			c-6.748-2.295-11.554-6.099-12.806-12.958c-1.591-8.717-5.641-15.434-14.751-19.525c4.063-1.646,7.226-2.562,10.027-4.126
			c10.284-5.741,10.458-18.149,0.155-23.913c-3.359-1.879-7.509-3.142-11.336-3.247c-13.924-0.38-27.865-0.15-42.523-0.15
			c7.783,6.041,7.989,6.339,8.105,16.062c0.127,10.643,0.163,21.289,0.162,31.933
			C1403.646,1272.003,1403.116,1272.822,1393.727,1277.453z M1345.042,1212.426c-11.208-0.13-23.216,4.968-30.844,13.641
			c-12.912,14.683-10.325,35.027,5.847,45.978c18.238,12.349,45.413,7.196,57.748-10.951c8.026-11.809,7.191-25.135-2.216-35.848
			C1367.809,1216.4,1357.758,1212.812,1345.042,1212.426z M1598.091,1214.738c11.404,4.942,14.716,12.714,14.719,22.491
			c0.002,6.993,0.458,13.991,0.307,20.978c-0.092,4.266,0.086,9.063-1.786,12.602c-1.561,2.951-5.929,4.417-9.028,6.522
			c8.84,0,17.691,0,26.543,0c-4.984-2.123-10.341-3.959-10.918-10.08c-1.139-12.091-1.67-24.239-2.611-38.809
			c19.864,16.221,34.468,34.252,53.49,49.813c0.282-3.894,0.55-6.078,0.579-8.266c0.152-11.325,0.132-22.654,0.409-33.975
			c0.113-4.628-0.253-9.737,1.583-13.71c1.587-3.435,5.984-5.572,8.91-8.087c-8.283,0-16.788,0-25.324,0
			c3.649,3.072,9.041,5.346,10.017,8.849c3.267,11.727,2.034,23.807,0.437,37.627c-14.005-13.472-26.945-24.963-38.684-37.571
			c-7.069-7.592-14.672-10.682-24.568-9.199C1601.538,1214.019,1600.917,1214.172,1598.091,1214.738z M1773.321,1246.989
			c-9.198,0-18.397,0-28.967,0c8.586,4.99,10.579,9.087,9.45,17.374c-0.707,5.191-5.646,10.297-12.519,11.01
			c-5.478,0.568-11.489,0.452-16.648-1.238c-12.167-3.987-19.284-13.144-20.338-25.852c-0.998-12.033,3.393-22.408,13.793-29.205
			c10.836-7.082,22.214-6.771,32.781,0.411c5.286,3.593,9.505,8.756,15.406,14.345c-0.612-6.438-1.117-11.76-1.505-15.838
			c-5.589-1.052-10.1-1.323-14.194-2.773c-15.84-5.611-30.85-4.033-44.908,4.906c-8.544,5.433-13.858,13.191-14.58,23.715
			c-0.976,14.216,6.277,23.478,18.14,29.469c15.601,7.879,31.435,6.433,47.351,0.273c6.086-2.355,9.508-5.653,8.607-12.475
			C1764.318,1254.497,1765.858,1249.259,1773.321,1246.989z M1186.737,1242.368c8.99-11.123,16.954-21.954,31.892-27.609
			c-10.098,0-18.009,0-26.738,0c7.635,5.85,7.862,6.648,2.81,12.891c-3.233,3.995-6.854,7.676-11.068,12.347
			c-5.83-7.436-10.835-13.82-16.032-20.448c2.874-2.089,4.647-3.378,6.534-4.749c-10.406,0-20.093,0-31.583,0
			c16.616,7.154,23.838,21.029,34.767,32.432c-11.119,10.977-16.701,26.105-32.988,30.47c4.877,0,9.754,0,14.631,0
			c4.564,0,9.128,0,13.691,0c-0.087-0.366-0.173-0.732-0.26-1.098c-3.116-1.351-6.233-2.702-11.072-4.799
			c6.532-8.063,11.99-14.802,17.864-22.052c7.339,7.796,14.292,13.872,17.631,23.406c-2.595,1.443-4.613,2.565-7.768,4.32
			c12.221,0,22.963,0,35.454,0C1206.392,1270.024,1198.14,1254.901,1186.737,1242.368z M1109.033,1235.078
			c-5.925,9.271-14.276,8.76-23.052,7.896c0-9.011,0-17.106,0-25.228c16.654-4.201,30.792-2.021,43.088,9.965
			c-1.06-4.409-2.12-8.818-3.272-13.61c-20.15,0-39.627,0-59.255,0c7.089,4.659,7.374,4.647,7.734,13.21
			c0.474,11.289,0.566,22.6,0.586,33.901c0.012,6.78-0.869,13.325-8.528,16.632c20.88,0,41.76,0,63.2,0
			c1.37-5.186,2.641-10,3.913-14.814c-0.519-0.428-1.038-0.855-1.557-1.283c-8.749,14.177-22.344,14.82-36.316,13.808
			c-7.434-0.538-9.832-3.314-10.164-10.858c-0.273-6.195-0.056-12.412-0.056-18.559c13.99-0.37,15.231,0.161,23.678,9.868
			C1109.033,1248.686,1109.033,1241.882,1109.033,1235.078z M1252.857,1247.323c5.558,0,9.571,0.499,13.409-0.108
			c7.152-1.13,14.414-2.284,21.227-4.61c5.312-1.813,8.124-6.582,8.14-12.557c0.016-5.913-2.814-10.208-7.77-12.973
			c-2.559-1.427-5.547-2.856-8.369-2.912c-14.465-0.29-28.939-0.134-43.411-0.134c5.993,2.261,5.981,7.419,5.993,12.404
			c0.028,11.951-0.183,23.903-0.125,35.854c0.029,5.976-0.523,11.55-7.915,14.797c9.919,0,18.213,0,26.507,0
			c-5.691-2.145-7.881-5.987-7.72-11.657C1252.98,1259.854,1252.857,1254.273,1252.857,1247.323z M1491.193,1277.404
			c11.604,0,22.793,0,34.739,0c-11.917-4.646-12.138-4.916-12.612-17.389c-0.228-5.989-0.433-11.984-0.428-17.975
			c0.007-8.221,0.224-16.442,0.348-24.462c15.441-1.885,18.41-0.943,34.733,11.086c-0.486-5.459-0.871-9.78-1.304-14.642
			c-25.994,0-51.183,0-76.324,0c-3.066,7.803-3.066,7.803-1.261,15.044c7.499-12.194,18.627-13.915,32.52-12.331
			c0.279,14.855,0.829,29.065,0.727,43.271C1502.244,1271.891,1501.774,1272.1,1491.193,1277.404z M1584.496,1277.461
			c-5.323-2.492-5.924-7.267-6.051-11.922c-0.355-12.955-0.884-25.939-0.33-38.867c0.191-4.463,3.369-8.798,5.051-12.875
			c-6.564,0-13.977,0-20.41,0c1.51,4.482,3.932,8.585,4.114,12.784c0.575,13.278,0.614,26.602,0.175,39.885
			c-0.122,3.691-2.622,7.303-4.048,10.995C1569.414,1277.461,1576.955,1277.461,1584.496,1277.461z"/>
		<path d="M1270.425,481.489c52.25-5.24,95.683,11.591,131.729,50.331c3.096-7.126,1.231-14.007,1.538-20.626
			c0.339-7.312,0.078-14.652,0.078-21.98c0-6.917,0-13.835,0-21.403c8.919,0,16.755,0,26.035,0c0,21.017,0,42.051,0,63.084
			c0.743,0.276,1.486,0.551,2.229,0.827c2.434-2.472,4.843-4.97,7.307-7.412c30.187-29.92,66.693-44.574,109.029-43.771
			c18.877,0.358,15.845-0.269,19.817,15.665c24.456,98.1-42.2,195.906-142.613,209.01c-8.392,1.095-17.341,0.133-25.746-1.418
			c-98.582-18.199-160.94-117.199-131.77-216.085C1268.526,486.122,1269.231,484.603,1270.425,481.489z M1430.765,614.888
			c30.303-36.415,67.669-51.955,112.019-51.169c3.468-18.883,3.978-36.509-0.532-54.485c-2.982,0-5.276-0.187-7.532,0.028
			c-41.088,3.903-72.335,23.671-95.497,57.7C1429.452,581.316,1429.22,596.376,1430.765,614.888z M1401.709,612.917
			c0.687-0.255,1.373-0.509,2.06-0.764c0-5.227-0.468-10.506,0.101-15.67c1.047-9.494-2.14-17.587-6.839-25.476
			c-17.723-29.753-43.244-49.282-76.643-58.293c-9.229-2.49-18.675-4.521-28.941-3.06c-3.725,18.049-3.726,35.745-0.098,54.202
			C1336.021,562.86,1372.955,578.772,1401.709,612.917z M1400.13,674.836c-4.869-45.55-61.053-91.529-99.044-81.851
			C1312.292,630.058,1359.443,669.264,1400.13,674.836z M1534.367,592.341c-47.265-3.446-97.174,38.857-99.811,83.308
			C1480.963,663.821,1513.709,636.589,1534.367,592.341z"/>
		<path d="M1424.327,741.929c-0.225-4.809-0.463-8.055-0.509-11.304c-0.073-5.245-0.02-10.492-0.02-16.308
			c51.909,0,102.72,0,154.21,0c0.331,2.068,0.973,4.247,0.98,6.427c0.049,16.626,1.046,33.317-3.611,49.619
			c-13.556,47.46-44.144,77.099-92.368,88.119c-5.124,1.171-10.566,1.288-15.863,1.308c-31.301,0.116-62.605-0.231-93.902,0.13
			c-39.712,0.459-70.347-16.951-94.72-47.031c-8.681-10.714-14.61-23.027-19.132-35.987c-1.029-2.95-1.094-6.237-1.721-10.097
			c64.329,0,127.449,0,191.344,0c0,8.744,0,17.163,0,26.713c-49.262,0-98.326,0-149.112,0c2.414,3.64,3.556,5.93,5.206,7.763
			c18.041,20.04,40.099,31.385,67.539,31.279c30.302-0.117,60.605,0.094,90.906-0.057c46.229-0.231,86.818-40.7,87.37-86.947
			c0.011-0.924-0.403-1.853-0.815-3.625C1508.632,741.929,1467.12,741.929,1424.327,741.929z"/>
		<path d="M1624.457,1052.147c4.741,2.481,7.69,3.984,10.602,5.556c6.854,3.699,10.947,9.54,13.031,16.922
			c0.903,3.199,1.869,6.38,2.718,9.593c2.986,11.299,9.104,19.164,21.702,20.114c0.912,0.069,1.796,0.712,2.649,1.171
			c0.178,0.096,0.16,0.556,0.45,1.728c-11.569,0.844-22.97,1.162-34.235-1.053c-2.479-0.488-5.151-3.067-6.512-5.397
			c-1.796-3.074-2.555-6.809-3.457-10.337c-1.649-6.445-2.791-13.03-4.66-19.406c-3.047-10.395-10.378-16.166-21.039-17.081
			c-6.573-0.564-13.234-0.104-20.933-0.104c-1.7,14.417-1.422,28.243,0.833,42.017c0.7,4.278,3.983,6.814,8.234,7.763
			c2.821,0.63,5.684,1.071,9.461,1.768c-6.887,2.814-41.556,3.467-55.759,0.335c2.267-0.549,4.518-1.187,6.806-1.63
			c6.867-1.332,9.853-4.148,11.079-10.916c0.413-2.283,0.584-4.642,0.575-6.965c-0.083-21.986-0.224-43.972-0.369-65.958
			c-0.011-1.663-0.1-3.336-0.307-4.986c-1.064-8.495-3.022-10.742-11.316-12.981c-1.875-0.506-3.797-0.842-5.764-2.525
			c2.069-0.429,4.133-1.202,6.208-1.233c20.318-0.303,40.647-0.929,60.951-0.478c8.175,0.181,16.6,1.9,24.367,4.527
			c10.878,3.68,17.419,13.041,16.915,22.409c-0.608,11.296-7.33,18.196-17.408,22.164
			C1635.003,1048.847,1630.562,1050.112,1624.457,1052.147z M1585.012,1050.066c7.926-0.597,14.933-0.584,21.72-1.798
			c6.097-1.09,12.41-2.673,17.809-5.566c8.236-4.414,12.423-11.916,11.018-21.605c-1.324-9.13-6.89-14.992-15.47-17.714
			c-11.354-3.602-22.747-2.279-34.79-0.344C1585.031,1018.86,1582.412,1033.63,1585.012,1050.066z"/>
		<path d="M1255.012,1105.881c3.133-0.63,6.252-1.343,9.401-1.874c6.028-1.017,9.456-4.683,10.491-10.511
			c0.698-3.925,1.164-7.925,1.314-11.908c0.714-18.971,1.348-37.945,1.847-56.923c0.096-3.641-0.379-7.324-0.875-10.948
			c-0.899-6.561-3.974-11.193-11.191-12.036c-1.399-0.163-2.712-1.069-5.142-2.081c1.875-1.014,2.614-1.768,3.335-1.751
			c23.632,0.559,47.27,0.987,70.889,1.906c11.068,0.431,21.784,3.276,31.646,8.385c18.167,9.412,29.484,23.826,30.075,44.912
			c0.576,20.584-9.408,35.58-26.432,46.229c-12.583,7.871-26.798,9.945-41.222,10.023c-12.304,0.066-24.61-1.203-36.924-1.482
			c-12.286-0.279-24.584-0.061-36.877-0.061C1255.234,1107.135,1255.123,1106.508,1255.012,1105.881z M1299.718,1003.789
			c-0.985,1.839-1.534,2.401-1.567,2.991c-1.36,24.921-2.721,49.842-3.931,74.771c-0.143,2.955,0.571,5.952,0.887,8.93
			c0.766,7.21,5.022,11.893,11.762,13.155c7.115,1.332,14.564,2.172,21.744,1.624c24.791-1.893,42.902-20.215,45.519-45.149
			c2.527-24.077-11.728-46.92-33.976-53.843C1326.91,1002.146,1313.319,1002.279,1299.718,1003.789z"/>
		<path d="M1194.786,1000.222c16.74,0,33.48,0,50.221,0c0.142,0.466,0.285,0.931,0.427,1.397c-2.964,0.749-5.928,1.498-8.892,2.247
			c-6.849,1.729-11.164,5.939-11.944,13.054c-0.579,5.283-0.759,10.624-0.839,15.944c-0.325,21.651-0.506,43.304-0.839,64.955
			c-0.048,3.157-0.631,6.306-1.199,11.647c-31.244-28.029-58.166-57.424-88.651-84.772c-0.482,3.125-1.178,5.266-1.08,7.37
			c0.859,18.28,1.306,36.606,3.013,54.812c1.152,12.282,5.435,15.424,18.017,17.099c1.51,0.201,2.971,0.767,5.189,1.36
			c-6.643,2.964-42.147,3.443-52.883,0.079c2.71-0.479,5.414-0.999,8.132-1.429c8.626-1.362,11.361-3.916,13.168-12.496
			c0.342-1.623,0.706-3.297,0.662-4.937c-0.536-20.307-0.562-40.652-1.98-60.899c-0.721-10.286-8.014-17.191-17.15-21.731
			c-1.873-0.93-3.907-1.535-5.609-4.131c10.102,0,20.224-0.336,30.293,0.245c2.407,0.139,4.828,3.14,6.92,5.159
			c23.969,23.132,47.87,46.334,71.811,69.495c1.352,1.308,2.895,2.421,5.772,4.803c0.232-6.092,0.53-10.585,0.551-15.079
			c0.062-13.322,0.271-26.652-0.059-39.967c-0.344-13.903-5.16-18.924-18.896-20.938c-1.506-0.221-2.98-0.665-4.469-1.005
			C1194.575,1001.744,1194.681,1000.983,1194.786,1000.222z"/>
		<path d="M2223.004,999.279c1.951,9.257,3.647,17.305,5.343,25.354c-0.542,0.356-1.083,0.712-1.625,1.068
			c-1.682-1.598-3.543-3.046-5.016-4.818c-9.748-11.724-21.9-18.068-37.437-17.409c-9.229,0.392-18.472,0.444-27.955,0.655
			c-3.303,15.15-2.438,29.298-2.344,43.719c8.425,2.889,16.208,1.589,23.969-0.113c8.455-1.854,11.109-9.649,16.564-15.491
			c0,13.445,0,26.89,0,42.799c-5.504-8.129-6.933-17.238-15.681-19.013c-7.716-1.565-15.633-2.141-24.452-3.281
			c-1.204,14.33-1.225,27.176,0.638,40.023c0.892,6.146,5.224,9.468,10.65,10.557c17.393,3.492,34.616,2.701,50.545-5.73
			c5.065-2.681,8.906-7.733,13.169-11.844c1.559-1.503,2.719-3.422,4.887-4.814c0.286,9.667-2.719,18.468-6.076,28.605
			c-36.983-0.679-73.965-1.358-110.946-2.037c-0.074-0.635-0.148-1.27-0.222-1.906c2.009-0.506,3.998-1.116,6.03-1.5
			c8.798-1.663,11.128-3.999,12.283-13.023c0.507-3.955,0.892-7.964,0.86-11.944c-0.167-20.298-0.347-40.598-0.809-60.891
			c-0.269-11.794-0.816-12.181-12.383-15.914c-1.239-0.4-2.49-0.761-3.663-1.118c0.036-0.602-0.012-0.906,0.086-1.152
			c0.115-0.287,0.358-0.749,0.545-0.749C2153.851,999.278,2187.736,999.279,2223.004,999.279z"/>
		<path d="M1490.74,1072.706c-5.365-5.747-6.857-14.03-15.029-16.584c-8.017-2.505-16.181-3.027-25.267-2.203
			c-0.918,13.126-1.023,25.661,0.677,38.215c0.894,6.602,5.266,10.102,11.125,11.28c16.713,3.36,33.309,2.536,48.753-5.06
			c5.433-2.672,9.687-7.828,14.291-12.054c1.804-1.656,3.093-3.875,5.411-5.437c-0.304,9.747-2.612,18.801-6.567,28.684
			c-36.857-0.674-73.734-1.349-110.612-2.023c-0.128-0.506-0.256-1.012-0.384-1.518c1.84-0.615,3.638-1.462,5.528-1.807
			c9.513-1.739,12.381-3.924,12.84-13.486c0.862-17.942,1.006-35.924,1.15-53.892c0.056-6.979-0.656-13.966-1.09-20.945
			c-0.543-8.755-1.336-9.73-9.845-12.677c-2.148-0.744-4.289-1.507-6.445-2.266c0.237-0.579,0.316-0.921,0.502-1.187
			c0.179-0.256,0.469-0.621,0.711-0.621c33.896-0.028,67.792-0.026,102.613-0.026c1.994,9.273,3.764,17.508,5.535,25.743
			c-0.559,0.293-1.118,0.585-1.677,0.878c-1.535-1.435-3.265-2.713-4.575-4.33c-10.115-12.48-22.919-18.842-39.203-17.948
			c-8.872,0.487-17.769,0.504-27.888,0.765c0,15.401,0,29.49,0,44.204c7.654,2.196,15.466,1.046,23.22-0.77
			c8.227-1.927,10.884-9.719,16.225-15.278C1490.74,1045.812,1490.74,1059.259,1490.74,1072.706z"/>
		<path d="M2101.044,1024.057c-0.98-0.796-2.141-1.446-2.912-2.409c-10.126-12.64-23.751-17.81-39.44-18.218
			c-7.647-0.199-15.334-0.036-22.961,0.529c-7.122,0.527-8.263,1.651-8.445,8.474c-0.302,11.304-0.082,22.622-0.082,34.643
			c7.61,2.472,15.452,1.567,23.172-0.152c8.751-1.949,11.292-9.958,14.786-17.695c2.883,8.604,1.956,36.312-1.5,42.899
			c-3.121-7.235-4.267-15.658-12.813-17.799c-7.687-1.925-15.522-3.555-24.082-0.818c0,13.696-0.19,27.271,0.09,40.837
			c0.118,5.714,3.736,8.979,9.39,9.985c2.865,0.51,5.692,1.235,8.544,1.864c-0.19,0.77-0.226,1.114-0.364,1.411
			c-0.125,0.271-0.311,0.598-0.557,0.713c-0.589,0.274-1.235,0.633-1.849,0.616c-16.475-0.463-32.949-0.969-49.46-1.468
			c0.127-0.517,0.154-1.098,0.295-1.127c13.29-2.735,14.143-4.546,14.525-18.214c0.613-21.945,0.151-43.921,0.083-65.883
			c-0.007-2.321-0.332-4.652-0.656-6.958c-0.898-6.39-4.448-10.2-10.963-11.082c-2.492-0.338-4.969-0.783-8.333-1.319
			c8.275-3.63,94.094-5.569,111.174-2.685c1.607,7.356,3.315,15.172,5.023,22.987
			C2102.821,1023.476,2101.933,1023.766,2101.044,1024.057z"/>
		<path d="M897.084,1001.282c-1.059,1.009-1.267,1.385-1.546,1.448c-14.443,3.263-16.803,6.059-11.669,19.518
			c8.141,21.342,17.564,42.195,26.445,63.255c0.895,0.253,1.79,0.505,2.686,0.758c0.26-0.936,0.415-1.917,0.796-2.801
			c8.297-19.259,16.632-38.501,24.918-57.765c0.919-2.136,1.7-4.348,2.343-6.583c2.784-9.667,0.862-12.873-9.22-15.72
			c-1.147-0.324-2.221-0.905-3.248-3.271c7.012-0.105,14.024-0.253,21.036-0.304c7.274-0.053,14.548-0.012,21.822-0.012
			c0.675,0.91,1.35,1.821,2.025,2.731c-1.29,0.273-2.568,0.679-3.872,0.797c-10.272,0.931-15.891,7.95-20.079,16.13
			c-5.001,9.768-9.297,19.899-13.816,29.91c-7.943,17.599-15.818,35.229-23.736,52.839c-0.819,1.821-1.504,3.765-2.658,5.357
			c-2.014,2.777-5.533,2.732-7.37-0.084c-1.075-1.647-1.585-3.655-2.416-5.47c-11.5-25.122-22.806-50.336-34.589-75.325
			c-8.553-18.138-8.836-18.005-25.062-25.279C847.226,999.324,886.817,999.1,897.084,1001.282z"/>
		<path d="M1903.321,1074.581c-2.165,10.881-4.33,21.762-6.599,33.164c-37.505,0-74.297,0-111.089,0
			c-0.11-0.442-0.221-0.884-0.331-1.327c2.601-0.68,5.2-1.364,7.803-2.038c7.982-2.068,11.235-5.568,12.278-13.62
			c0.427-3.294,0.611-6.64,0.625-9.963c0.082-19.294,0.581-38.606-0.056-57.879c-0.485-14.685-3.303-17.218-17.638-21.192
			c-0.875-0.242-1.653-0.832-3.496-1.79c7.17-3.247,13.658-0.888,19.949-0.971c6.986-0.091,13.977,0.212,20.967,0.269
			c6.596,0.054,13.193,0.012,20.175,1.856c-2.515,0.619-5.029,1.244-7.546,1.857c-10.159,2.476-13.013,5.538-13.204,15.67
			c-0.414,21.956-0.55,43.917-0.76,65.877c-0.019,1.991,0.178,3.992,0.399,5.974c0.948,8.49,4.109,12.034,12.382,12.894
			c24.632,2.563,45.54-3.733,59.703-25.673c0.988-1.531,2.433-2.766,3.666-4.139
			C1901.472,1073.895,1902.397,1074.238,1903.321,1074.581z"/>
		<path d="M1092.08,1107.634c-17.973,0-35.946,0-53.919,0c-0.104-0.497-0.208-0.995-0.312-1.492
			c3.046-0.735,6.133-1.336,9.131-2.232c6.07-1.814,7.816-4.361,5.744-10.314c-3.262-9.37-7.215-18.499-10.778-27.487
			c-15.837,0-30.747,0-46.55,0c-3.127,8.122-6.644,16.007-9.174,24.198c-2.291,7.418,0.038,10.869,7.669,13.542
			c2.702,0.946,5.491,1.641,8.086,3.599c-14.126,0-28.252,0-42.593,0c0.386-1.262,0.47-2.283,0.748-2.339
			c10.927-2.194,16.777-9.699,21.054-19.291c10.7-23.996,21.605-47.901,32.545-71.789c2.212-4.831,4.695-9.576,7.496-14.086
			c2.356-3.794,5.275-3.811,7.798-0.261c1.722,2.423,3.081,5.146,4.32,7.863c10.354,22.694,20.636,45.421,30.957,68.13
			c1.789,3.936,3.754,7.795,5.469,11.763c4.308,9.969,10.122,18.095,22.861,18.114
			C1092.446,1106.245,1092.263,1106.939,1092.08,1107.634z M1039.671,1059.914c-7.129-15.185-13.64-29.053-20.784-44.27
			c-8.685,14.987-14.881,28.991-20.883,44.27C1012.251,1059.914,1024.801,1059.914,1039.671,1059.914z"/>
		<path d="M719.449,1106.048c0.694-0.566,1.326-1.516,2.09-1.639c9.217-1.481,14.513-7.508,18.13-15.475
			c5.36-11.807,10.563-23.685,16.003-35.455c7.252-15.692,14.653-31.314,22.028-46.949c0.992-2.102,2.057-4.199,3.346-6.126
			c2.864-4.281,5.599-4.465,8.35-0.352c2.024,3.025,3.682,6.332,5.198,9.653c9.527,20.869,18.97,41.776,28.438,62.672
			c1.784,3.938,3.497,7.909,5.348,11.814c7.932,16.73,7.947,16.723,25.743,23.278c-19.866,0-37.755,0-56.39,0
			c2.52-3.23,6.058-2.455,8.823-3.341c6.673-2.139,8.44-4.416,6.204-10.886c-3.136-9.074-6.97-17.907-10.604-27.093
			c-15.406,0-30.28,0-46.626,0c-3.101,8.229-6.769,16.693-9.429,25.463c-1.824,6.012,0.392,9.311,6.347,11.68
			c3.055,1.215,6.328,1.882,9.479,2.79c0.046,0.393,0.156,0.736,0.101,1.05c-0.04,0.228-0.296,0.6-0.457,0.6
			c-13.925,0.028-27.85,0.026-41.775,0.026C719.68,1107.189,719.565,1106.619,719.449,1106.048z M757.553,1059.804
			c14.976,0,27.777,0,42.185,0c-7.017-14.988-13.54-28.921-21.096-45.061C771.198,1030.647,764.777,1044.368,757.553,1059.804z"/>
		<path d="M597.714,1107.777c1.909-1.641,2.103-1.946,2.355-2.005c16.718-3.9,19.161-6.513,19.477-23.344
			c0.35-18.631,0.203-37.272,0.241-55.908c0.031-15.147-3.767-22.963-19.372-25.107c-0.422-0.058-0.741-0.865-1.835-2.228
			c20.565,0,40.399,0,60.234,0c0.087,0.624,0.175,1.247,0.262,1.871c-2.659,0.687-5.319,1.37-7.977,2.062
			c-9.578,2.494-12.493,5.744-12.821,16.207c-0.48,15.298-0.496,30.611-0.604,45.919c-0.054,7.653-0.045,15.314,0.239,22.961
			c0.392,10.542,4.263,14.452,14.346,15.354c24.897,2.227,45.273-5.237,58.864-27.307c0.69-1.121,0.941-2.513,2.806-2.948
			c2.221,12.303-1.846,22.967-4.041,34.474C672.661,1107.777,635.919,1107.777,597.714,1107.777z"/>
		<path d="M1967.713,1107.888c-15.226,0-30.452,0.015-45.678-0.031c-1.126-0.004-2.25-0.455-3.551-0.736
			c0.597-1.254,0.736-2.153,1.128-2.281c11.631-3.813,12.282-3.792,12.458-16.236c0.319-22.585,0.049-45.188-0.491-67.772
			c-0.349-14.606-1.025-14.98-14.812-20.781c5.766-3.751,11.606-1.514,17.063-1.82c5.637-0.316,11.299-0.275,16.949-0.224
			c5.719,0.052,11.437,0.307,18.026,0.498c-1.349,1.891-1.602,2.677-2.057,2.82c-14.863,4.665-15.417,4.648-15.642,19.716
			c-0.332,22.242-0.047,44.503,0.491,66.744c0.292,12.074,1.792,13.228,14.137,16.643c0.824,0.228,1.499,0.998,2.243,1.515
			C1967.888,1106.592,1967.801,1107.24,1967.713,1107.888z"/>
		<path d="M1393.727,1277.453c9.39-4.631,9.919-5.45,9.919-16.068c0-10.644-0.035-21.29-0.162-31.933
			c-0.116-9.723-0.322-10.021-8.105-16.062c14.658,0,28.599-0.23,42.523,0.15c3.828,0.104,7.977,1.367,11.336,3.247
			c10.303,5.764,10.129,18.172-0.155,23.913c-2.801,1.564-5.964,2.481-10.027,4.126c9.111,4.091,13.161,10.808,14.751,19.525
			c1.252,6.859,6.057,10.662,12.806,12.958c-1.412,0.125-2.826,0.379-4.235,0.357c-17.921-0.273-18.188,1.134-21.888-16.677
			c-2.899-13.956-8.859-16.973-26.186-14.341c0,7.035-0.112,14.233,0.036,21.427c0.115,5.546,4.65,7.182,8.692,9.379
			C1413.43,1277.453,1403.828,1277.453,1393.727,1277.453z M1414.635,1242.639c8.145,1.165,15.607,0.318,22.534-3.177
			c5.536-2.793,8.18-7.981,7.196-13.019c-1.133-5.801-4.785-9.871-10.514-10.586c-6.061-0.756-12.29-0.17-19.217-0.17
			C1414.635,1225.301,1414.635,1233.775,1414.635,1242.639z"/>
		<path d="M1345.042,1212.426c12.715,0.386,22.767,3.974,30.535,12.82c9.408,10.714,10.243,24.039,2.216,35.848
			c-12.335,18.147-39.51,23.3-57.748,10.951c-16.172-10.95-18.759-31.295-5.847-45.978
			C1321.826,1217.395,1333.834,1212.296,1345.042,1212.426z M1370.444,1245.58c-1-4.49-1.483-9.176-3.099-13.433
			c-4.408-11.612-13.016-17.383-24.209-16.909c-10.353,0.438-18.124,7.018-22.029,18.512c-3.277,9.645-1.878,19.006,1.798,28.135
			c3.4,8.443,9.881,13.018,18.928,13.995c9.059,0.978,16.262-2.217,21.517-9.64
			C1367.689,1260.111,1369.913,1253.271,1370.444,1245.58z"/>
		<path d="M1598.091,1214.738c2.825-0.567,3.447-0.719,4.077-0.813c9.897-1.483,17.499,1.607,24.568,9.199
			c11.739,12.608,24.679,24.099,38.684,37.571c1.598-13.821,2.83-25.9-0.437-37.627c-0.976-3.504-6.369-5.777-10.017-8.849
			c8.536,0,17.041,0,25.324,0c-2.927,2.515-7.323,4.652-8.91,8.087c-1.836,3.973-1.471,9.082-1.583,13.71
			c-0.276,11.322-0.257,22.65-0.409,33.975c-0.029,2.188-0.297,4.372-0.579,8.266c-19.021-15.561-33.625-33.592-53.49-49.813
			c0.94,14.57,1.472,26.718,2.611,38.809c0.576,6.121,5.933,7.958,10.918,10.08c-8.852,0-17.703,0-26.543,0
			c3.099-2.106,7.467-3.572,9.028-6.522c1.872-3.538,1.694-8.336,1.786-12.602c0.151-6.987-0.305-13.985-0.307-20.978
			C1612.807,1227.452,1609.495,1219.68,1598.091,1214.738z"/>
		<path d="M1773.321,1246.989c-7.464,2.27-9.003,7.508-8.129,14.121c0.901,6.822-2.522,10.12-8.607,12.475
			c-15.917,6.16-31.751,7.607-47.351-0.273c-11.863-5.991-19.116-15.253-18.14-29.469c0.722-10.524,6.036-18.282,14.58-23.715
			c14.058-8.939,29.068-10.517,44.908-4.906c4.094,1.45,8.605,1.721,14.194,2.773c0.387,4.078,0.893,9.4,1.505,15.838
			c-5.901-5.589-10.12-10.752-15.406-14.345c-10.567-7.183-21.945-7.493-32.781-0.411c-10.401,6.797-14.792,17.172-13.793,29.205
			c1.054,12.708,8.172,21.865,20.338,25.852c5.159,1.69,11.17,1.807,16.648,1.238c6.873-0.713,11.812-5.819,12.519-11.01
			c1.129-8.287-0.865-12.384-9.45-17.374C1754.925,1246.989,1764.123,1246.989,1773.321,1246.989z"/>
		<path d="M1186.737,1242.368c11.403,12.533,19.655,27.657,37.766,35.111c-12.491,0-23.233,0-35.454,0
			c3.156-1.755,5.173-2.877,7.768-4.32c-3.339-9.534-10.292-15.61-17.631-23.406c-5.874,7.251-11.332,13.989-17.864,22.052
			c4.839,2.098,7.956,3.448,11.072,4.799c0.087,0.366,0.173,0.732,0.26,1.098c-4.564,0-9.127,0-13.691,0c-4.877,0-9.754,0-14.631,0
			c16.286-4.365,21.868-19.493,32.988-30.47c-10.928-11.403-18.151-25.279-34.767-32.432c11.49,0,21.177,0,31.583,0
			c-1.886,1.371-3.66,2.66-6.534,4.749c5.197,6.628,10.202,13.012,16.032,20.448c4.214-4.672,7.835-8.352,11.068-12.347
			c5.052-6.244,4.826-7.041-2.81-12.891c8.729,0,16.64,0,26.738,0C1203.691,1220.413,1195.727,1231.244,1186.737,1242.368z"/>
		<path d="M1109.033,1235.078c0,6.804,0,13.608,0,20.927c-8.447-9.707-9.688-10.238-23.678-9.868c0,6.148-0.217,12.364,0.056,18.559
			c0.332,7.544,2.73,10.32,10.164,10.858c13.972,1.012,27.567,0.369,36.316-13.808c0.519,0.428,1.038,0.855,1.557,1.283
			c-1.272,4.814-2.543,9.629-3.913,14.814c-21.441,0-42.32,0-63.2,0c7.659-3.306,8.54-9.852,8.528-16.632
			c-0.02-11.302-0.112-22.612-0.586-33.901c-0.36-8.563-0.645-8.551-7.734-13.21c19.628,0,39.104,0,59.255,0
			c1.152,4.792,2.212,9.201,3.272,13.61c-12.295-11.985-26.433-14.166-43.088-9.965c0,8.122,0,16.217,0,25.228
			C1094.757,1243.838,1103.108,1244.349,1109.033,1235.078z"/>
		<path d="M1252.857,1247.323c0,6.95,0.124,12.531-0.035,18.105c-0.161,5.67,2.029,9.512,7.72,11.657c-8.294,0-16.588,0-26.507,0
			c7.392-3.247,7.944-8.821,7.915-14.797c-0.058-11.951,0.154-23.903,0.125-35.854c-0.012-4.986,0-10.143-5.993-12.404
			c14.471,0,28.945-0.156,43.411,0.134c2.822,0.057,5.809,1.485,8.369,2.912c4.956,2.764,7.786,7.059,7.77,12.973
			c-0.016,5.975-2.827,10.744-8.14,12.557c-6.813,2.325-14.075,3.479-21.227,4.61
			C1262.427,1247.822,1258.415,1247.323,1252.857,1247.323z M1253.669,1243.435c8.014,2.444,16.693,1.907,22.393-1.236
			c5.172-2.852,8.351-9.1,7.662-15.059c-0.644-5.563-4.592-10.114-11.203-10.954c-6.056-0.769-12.286-0.163-18.853-0.163
			C1253.669,1225.896,1253.669,1234.726,1253.669,1243.435z"/>
		<path d="M1491.193,1277.404c10.581-5.304,11.051-5.513,11.136-17.399c0.102-14.205-0.447-28.416-0.727-43.271
			c-13.892-1.583-25.021,0.137-32.52,12.331c-1.805-7.241-1.805-7.241,1.261-15.044c25.141,0,50.331,0,76.324,0
			c0.433,4.863,0.818,9.183,1.304,14.642c-16.324-12.028-19.292-12.97-34.733-11.086c-0.124,8.019-0.34,16.24-0.348,24.462
			c-0.005,5.992,0.2,11.986,0.428,17.975c0.474,12.473,0.694,12.744,12.612,17.389
			C1513.986,1277.404,1502.798,1277.404,1491.193,1277.404z"/>
		<path d="M1584.496,1277.461c-7.541,0-15.082,0-21.499,0c1.426-3.692,3.926-7.304,4.048-10.995
			c0.439-13.284,0.399-26.608-0.175-39.885c-0.182-4.199-2.604-8.302-4.114-12.784c6.433,0,13.846,0,20.41,0
			c-1.683,4.077-4.86,8.412-5.051,12.875c-0.554,12.929-0.025,25.912,0.33,38.867
			C1578.572,1270.194,1579.173,1274.97,1584.496,1277.461z"/>
		<path class="st0" d="M1430.765,614.888c-1.544-18.512-1.313-33.571,8.458-47.926c23.162-34.029,54.41-53.797,95.497-57.7
			c2.256-0.214,4.55-0.028,7.532-0.028c4.51,17.976,4,35.602,0.532,54.485C1498.434,562.932,1461.068,578.472,1430.765,614.888z"/>
		<path class="st0" d="M1401.709,612.917c-28.754-34.145-65.688-50.057-110.359-49.061c-3.628-18.457-3.627-36.154,0.098-54.202
			c10.266-1.461,19.712,0.57,28.941,3.06c33.399,9.01,58.921,28.54,76.643,58.293c4.699,7.889,7.886,15.982,6.839,25.476
			c-0.569,5.164-0.101,10.443-0.101,15.67C1403.083,612.408,1402.396,612.663,1401.709,612.917z"/>
		<path class="st0" d="M1400.13,674.836c-40.687-5.573-87.838-44.779-99.044-81.851
			C1339.077,583.307,1395.261,629.287,1400.13,674.836z"/>
		<path class="st0" d="M1534.367,592.341c-20.659,44.248-53.405,71.48-99.811,83.308
			C1437.194,631.198,1487.103,588.895,1534.367,592.341z"/>
		<path class="st0" d="M1585.012,1050.066c-2.599-16.436,0.019-31.206,0.287-47.026c12.042-1.936,23.436-3.258,34.79,0.344
			c8.58,2.722,14.146,8.584,15.47,17.714c1.405,9.689-2.782,17.191-11.018,21.605c-5.399,2.893-11.712,4.477-17.809,5.566
			C1599.944,1049.481,1592.938,1049.469,1585.012,1050.066z"/>
		<path class="st0" d="M1299.718,1003.789c13.602-1.51,27.192-1.643,40.439,2.479c22.248,6.922,36.504,29.766,33.976,53.843
			c-2.617,24.934-20.729,43.256-45.519,45.149c-7.181,0.548-14.63-0.292-21.744-1.624c-6.74-1.262-10.996-5.945-11.762-13.155
			c-0.316-2.978-1.031-5.974-0.887-8.93c1.21-24.929,2.571-49.85,3.931-74.771
			C1298.183,1006.19,1298.733,1005.628,1299.718,1003.789z"/>
		<path class="st0" d="M1039.671,1059.914c-14.87,0-27.42,0-41.667,0c6.001-15.279,12.198-29.282,20.883-44.27
			C1026.031,1030.862,1032.542,1044.729,1039.671,1059.914z"/>
		<path class="st0" d="M757.553,1059.804c7.224-15.436,13.646-29.158,21.089-45.061c7.556,16.14,14.079,30.073,21.096,45.061
			C785.33,1059.804,772.528,1059.804,757.553,1059.804z"/>
		<path class="st0" d="M1414.635,1242.639c0-8.864,0-17.338,0-26.951c6.927,0,13.156-0.587,19.217,0.17
			c5.729,0.715,9.381,4.784,10.514,10.586c0.984,5.038-1.66,10.226-7.196,13.019
			C1430.242,1242.957,1422.78,1243.804,1414.635,1242.639z"/>
		<path class="st0" d="M1370.444,1245.58c-0.532,7.691-2.755,14.53-7.094,20.66c-5.255,7.423-12.458,10.618-21.517,9.64
			c-9.047-0.976-15.528-5.552-18.928-13.995c-3.676-9.129-5.075-18.49-1.798-28.135c3.905-11.493,11.676-18.073,22.029-18.512
			c11.194-0.474,19.801,5.297,24.209,16.909C1368.961,1236.404,1369.445,1241.09,1370.444,1245.58z"/>
		<path class="st0" d="M1253.669,1243.435c0-8.708,0-17.539,0-27.412c6.566,0,12.797-0.606,18.853,0.163
			c6.61,0.84,10.559,5.391,11.203,10.954c0.689,5.958-2.49,12.206-7.662,15.059
			C1270.363,1245.342,1261.683,1245.878,1253.669,1243.435z"/>
	</g>
</g>
</svg>
